<?xml version="1.0" encoding="UTF-8" standalone="no"?>
<svg
   xmlns:svg="http://www.w3.org/2000/svg"
   xmlns="http://www.w3.org/2000/svg"
   viewBox="-1.6392304845413261 -1.6392304845413261 3.2784609690826523 3.2784609690826523"
   width="500"
   height="500"
   version="1.1">
  <polygon
     points="1.1160254037844386,-0.8325317547305484 1.3660254037844384,-1.049038105676658 -0.36602540378443893,-1.549038105676658 -1.3660254037844384,-0.6830127018922191 -0.4999999999999998,-0.43301270189221913 0.8660254037844387,-0.6160254037844386"
     style="fill:#ffffff;stroke:#d51800;stroke-width:0.15;stroke-linejoin:round;stroke-miterlimit:100" />
  <polyline
     points="0.4999999999999998,-1.299038105676658 -0.4999999999999998,-0.43301270189221913"
     style="fill:#ffffff;stroke:#d51800;stroke-width:0.15;stroke-linejoin:round;stroke-miterlimit:100" />
  <polyline
     points="0.8660254037844387,-0.6160254037844386 -0.8660254037844387,-1.1160254037844386"
     style="fill:#ffffff;stroke:#d51800;stroke-width:0.15;stroke-linejoin:round;stroke-miterlimit:100" />
  <polygon
     points="1.3660254037844384,-0.1830127018922195 1.3660254037844384,-1.049038105676658 0.8660254037844387,-0.6160254037844386 0.36602540378443893,-0.1830127018922193 0.36602540378443893,1.549038105676658 1.3660254037844384,0.6830127018922191"
     style="fill:#ffffff;stroke:#d51800;stroke-width:0.15;stroke-linejoin:round;stroke-miterlimit:100" />
  <polyline
     points="1.3660254037844384,-0.1830127018922195 0.36602540378443893,0.6830127018922193"
     style="fill:#ffffff;stroke:#d51800;stroke-width:0.15;stroke-linejoin:round;stroke-miterlimit:100" />
  <polyline
     points="0.8660254037844387,1.1160254037844386 0.8660254037844387,-0.6160254037844386"
     style="fill:#ffffff;stroke:#d51800;stroke-width:0.15;stroke-linejoin:round;stroke-miterlimit:100" />
  <polygon
     points="-0.9330127018922192,-0.5580127018922192 -1.3660254037844384,-0.6830127018922191 -1.3660254037844384,1.049038105676658 0.36602540378443893,1.549038105676658 0.36602540378443893,-0.1830127018922193 -0.4999999999999998,-0.43301270189221913"
     style="fill:#ffffff;stroke:#d51800;stroke-width:0.15;stroke-linejoin:round;stroke-miterlimit:100" />
  <polyline
     points="-1.3660254037844384,0.1830127018922195 0.36602540378443893,0.6830127018922193"
     style="fill:#ffffff;stroke:#d51800;stroke-width:0.15;stroke-linejoin:round;stroke-miterlimit:100" />
  <polyline
     points="-0.4999999999999998,-0.43301270189221913 -0.4999999999999998,1.299038105676658"
     style="fill:#ffffff;stroke:#d51800;stroke-width:0.15;stroke-linejoin:round;stroke-miterlimit:100" />
  <polyline
     points="1.3660254037844384,-0.1830127018922195 0.8660254037844387,-0.6160254037844386"
     style="fill:#ffffff;stroke:#d51800;stroke-width:0.15;stroke-linejoin:round;stroke-miterlimit:100" />
  <polyline
     points="-1.3660254037844384,0.1830127018922195 -0.4999999999999998,-0.43301270189221913"
     style="fill:#ffffff;stroke:#d51800;stroke-width:0.15;stroke-linejoin:round;stroke-miterlimit:100" />
  <polygon
     points="0.18301270189221946,-0.524519052838329 -0.4999999999999998,-0.43301270189221913 0.36602540378443893,-0.1830127018922193 0.8660254037844387,-0.6160254037844386"
     style="fill:#d51800;stroke:none;stroke-width:0.0;stroke-linejoin:round;stroke-miterlimit:100" />
  <polygon
     points="1.1160254037844386,0.03349364905389022 1.3660254037844384,-0.1830127018922195 0.8660254037844387,-0.6160254037844386 0.8660254037844387,0.24999999999999994"
     style="fill:#d51800;stroke:none;stroke-width:0.0;stroke-linejoin:round;stroke-miterlimit:100" />
  <polygon
     points="-0.9330127018922192,0.30801270189221946 -1.3660254037844384,0.1830127018922195 -0.4999999999999998,-0.43301270189221913 -0.4999999999999998,0.43301270189221946"
     style="fill:#d51800;stroke:none;stroke-width:0.0;stroke-linejoin:round;stroke-miterlimit:100" />
</svg>
